<svg xmlns="http://www.w3.org/2000/svg" viewBox="0 0 240 240" role="img" aria-labelledby="title desc">
  <title id="title">Foto ilustrada de Marina Costa</title>
  <desc id="desc">Retrato ilustrado em fundo escuro com detalhes violeta.</desc>
  <defs>
    <linearGradient id="bg" x1="28" y1="212" x2="212" y2="28" gradientUnits="userSpaceOnUse">
      <stop stop-color="#080812"/>
      <stop offset=".55" stop-color="#4b1c88"/>
      <stop offset="1" stop-color="#8148f0"/>
    </linearGradient>
    <linearGradient id="top" x1="62" y1="221" x2="180" y2="149" gradientUnits="userSpaceOnUse">
      <stop stop-color="#00b3cc"/>
      <stop offset="1" stop-color="#8148f0"/>
    </linearGradient>
  </defs>
  <rect width="240" height="240" rx="120" fill="url(#bg)"/>
  <circle cx="179" cy="59" r="37" fill="#ffffff" opacity=".1"/>
  <circle cx="56" cy="178" r="34" fill="#00e5ff" opacity=".18"/>
  <path fill="#1f1320" d="M63 111c0-43 24-72 62-72s62 29 62 74c0 49-26 80-62 80-37 0-62-32-62-82Z"/>
  <path fill="#df9c75" d="M82 106c0-31 17-52 43-52s43 21 43 52c0 34-18 58-43 58s-43-24-43-58Z"/>
  <path fill="#2b1726" d="M73 114c10-14 14-34 16-55 29 19 54 28 86 33-4-34-23-53-51-53-36 0-56 27-51 75Z"/>
  <path fill="url(#top)" d="M50 220c8-36 36-58 75-58s67 22 75 58H50Z"/>
  <path fill="#eab18c" d="M107 157h36v29c0 9-8 16-18 16s-18-7-18-16v-29Z"/>
  <path fill="#fff" opacity=".88" d="M91 109c4-4 13-4 18 0-5 5-13 5-18 0Zm50 0c5-4 14-4 18 0-5 5-13 5-18 0Z"/>
  <path fill="#8e3f5a" d="M111 137c8 6 19 6 27 0-2 9-25 9-27 0Z"/>
</svg>
